:SAMPLES-PER-SECOND 30
:FULLY-SPECIFIED
:DEGREES
305
root  -3.63456 38.7364 13.5985 177.388 51.0535 176.709
RightUpLeg  -13.9069 -0.231949 -9.0474
RightLeg  25.4262 -6.17622 -3.40908
RightFoot  -6.42242 -0.928093 20.3511
RightToes  2.32829e-010 0 -3.6325e-017
Spine  9.98736 -1.28012 3.79212
Spine1  22.2265 0.414178 -2.98144
HEad  -17.8335 39.0285 -22.9687
LeftShoulder1  0.642326 0.700553 -16.1362
LeftArm  17.3502 12.0378 -59.8625
LeftForeArm  26.3525 -73.6032 -40.4857
LeftHand  -2.64554 -3.3218 34.5502
RightShoulder  0.253998 -1.71948 6.6681
RightArm  -4.75602 -15.4164 60.2652
RightForeArm  88.3077 78.2165 110.354
RightHand  -1.13675 3.45668 -15.0981
LeftUpLeg  -20.4993 2.31346 9.34585
LeftLeg  45.0847 2.62383 3.22314
LeftFoot  1.45315 1.83667 -16.4093
LeftToes  -5.54824e-011 -8.71001e-011 8.3852e-012
306
root  -3.91156 39.092 13.1791 177.688 54.2198 175.374
RightUpLeg  -14.4327 0.620333 -10.5889
RightLeg  21.54 -4.06056 -2.09653
RightFoot  -3.32496 -1.56529 21.7797
RightToes  2.32829e-010 0 -3.6325e-017
Spine  9.98442 -1.0305 1.69905
Spine1  21.0112 -0.305068 -1.31001
HEad  -18.8309 41.4345 -25.0891
LeftShoulder1  0.576595 0.931293 -15.588
LeftArm  17.9122 14.1112 -60.9561
LeftForeArm  47.2232 -77.5571 -57.8637
LeftHand  -2.64451 -4.18337 31.6002
RightShoulder  0.208347 -2.0611 6.95996
RightArm  -6.00011 -16.8922 61.4865
RightForeArm  73.0521 79.2341 87.7179
RightHand  -1.4349 4.79205 -16.5319
LeftUpLeg  -20.1886 2.70319 9.35898
LeftLeg  38.17 3.57562 3.42257
LeftFoot  3.64503 1.81807 -13.9298
LeftToes  -5.54824e-011 -8.71001e-011 8.3852e-012
307
root  -4.24605 39.4247 12.7715 179.037 57.7696 174.521
RightUpLeg  -16.1286 -0.00165932 -11.4899
RightLeg  17.7191 -0.145973 -0.895025
RightFoot  0.575714 -2.42676 22.9639
RightToes  2.32829e-010 0 -3.6325e-017
Spine  9.98178 -0.77901 -0.702348
Spine1  18.9535 -1.22741 0.982059
HEad  -19.5427 44.7155 -27.5234
LeftShoulder1  0.402202 1.70053 -15.4907
LeftArm  16.5076 11.6977 -61.8836
LeftForeArm  70.4418 -79.334 -78.1915
LeftHand  -2.67049 -4.79895 30.0736
RightShoulder  0.197528 -2.23998 8.31409
RightArm  -8.19596 -19.5963 62.4287
RightForeArm  41.9339 76.7652 53.8496
RightHand  -1.82399 5.98225 -18.7518
LeftUpLeg  -19.9964 3.34274 9.95077
LeftLeg  30.8451 3.74231 2.74113
LeftFoot  5.33741 1.8787 -12.9807
LeftToes  -5.54824e-011 -8.71001e-011 8.3852e-012
308
root  -4.62011 39.5602 12.4427 -178.991 61.3406 174.114
RightUpLeg  -19.1613 0.6711 -12.4089
RightLeg  15.8077 4.04121 0.3915
RightFoot  3.08858 -3.19615 25.0794
RightToes  2.32829e-010 0 -3.6325e-017
Spine  10.7847 -0.911792 -5.18862
Spine1  15.8734 -3.26548 5.24839
HEad  -22.426 49.0899 -32.3493
LeftShoulder1  0.216133 2.53374 -15.4389
LeftArm  11.7681 5.99699 -61.1772
LeftForeArm  89.4199 -79.6122 -95.2391
LeftHand  -2.95362 -5.34684 31.449
RightShoulder  0.218706 -2.19459 9.54618
RightArm  -10.8519 -21.0983 63.5909
RightForeArm  13.5614 67.1059 27.3497
RightHand  -2.23549 6.74136 -21.4768
LeftUpLeg  -20.4322 2.91259 11.332
LeftLeg  25.6464 6.00595 3.45699
LeftFoot  5.66568 1.91089 -12.9697
LeftToes  -5.54824e-011 -8.71001e-011 8.3852e-012
309
root  -4.99162 39.3244 12.2205 -176.388 64.0331 174.956
RightUpLeg  -22.9166 2.69209 -13.1502
RightLeg  17.1104 5.68299 1.64921
RightFoot  2.2832 -3.254 26.9168
RightToes  2.32829e-010 0 -3.6325e-017
Spine  12.5995 -1.17838 -12.2457
Spine1  12.2689 -6.58831 13.2479
HEad  -27.8269 53.4768 -39.2042
LeftShoulder1  0.0737425 3.15469 -14.1644
LeftArm  3.95853 -1.01302 -58.073
LeftForeArm  94.0394 -79.5752 -98.9263
LeftHand  -3.34135 -5.66232 34.43
RightShoulder  0.269747 -1.93552 10.0796
RightArm  -13.5477 -21.1258 64.3952
RightForeArm  -1.41424 51.5982 14.2508
RightHand  -2.50935 6.99992 -23.5108
LeftUpLeg  -21.3393 1.53246 13.9378
LeftLeg  24.0631 10.3526 5.37201
LeftFoot  5.1025 1.54685 -10.8747
LeftToes  -5.54824e-011 -8.71001e-011 8.3852e-012
310
root  -5.39608 38.7304 12.0349 -171.689 65.7146 179.325
RightUpLeg  -26.1888 2.12608 -11.2442
RightLeg  20.5806 5.82084 2.20485
RightFoot  -0.47185 -2.48878 25.621
RightToes  2.32829e-010 0 -3.6325e-017
Spine  15.0734 -1.08788 -18.5326
Spine1  9.11046 -9.96064 23.4545
HEad  -33.2937 56.8987 -45.2616
LeftShoulder1  -0.0867133 4.00348 -10.8631
LeftArm  -5.04834 -8.05673 -53.1266
LeftForeArm  72.9345 -79.3596 -77.3496
LeftHand  -3.25753 -5.11311 35.2038
RightShoulder  0.384136 -1.29272 10.2168
RightArm  -17.1516 -22.4379 64.2117
RightForeArm  -6.95488 36.5938 8.59019
RightHand  -2.73584 7.26703 -25.0178
LeftUpLeg  -21.7835 0.73845 18.2691
LeftLeg  25.7515 13.4072 7.28817
LeftFoot  3.95032 1.01475 -7.67367
LeftToes  -5.54824e-011 -8.71001e-011 8.3852e-012
311
root  -5.90473 37.8358 11.7989 -164.707 66.9594 -172.291
RightUpLeg  -28.7506 0.287554 -7.21535
RightLeg  25.5236 5.32285 2.55411
RightFoot  -3.6002 -1.54967 22.25
RightToes  2.32829e-010 0 -3.6325e-017
Spine  17.8446 -0.870271 -21.1967
Spine1  7.41918 -12.4216 31.4398
HEad  -38.0524 59.5904 -49.7787
LeftShoulder1  -0.279178 5.4194 -6.86531
LeftArm  -13.8574 -13.42 -47.1507
LeftForeArm  44.3094 -75.9893 -46.3306
LeftHand  -2.59414 -3.92348 31.7725
RightShoulder  0.586428 -0.191121 10.5069
RightArm  -21.5218 -27.2419 62.576
RightForeArm  -10.9345 27.7702 6.51004
RightHand  -2.88649 7.32257 -26.2326
LeftUpLeg  -21.3138 -0.229533 24.0074
LeftLeg  30.2861 13.8247 8.90986
LeftFoot  1.1551 1.04008 -9.74448
LeftToes  -5.54824e-011 -8.71001e-011 8.3852e-012
312
root  -6.49305 36.6984 11.4271 -157.184 68.1031 -162.299
RightUpLeg  -31.1725 -0.949105 -3.65359
RightLeg  32.0252 6.21874 3.97559
RightFoot  -7.0046 -0.854026 21.319
RightToes  2.32829e-010 0 -3.6325e-017
Spine  20.2668 -0.81448 -20.9363
Spine1  7.79957 -14.0565 35.2842
HEad  -43.2451 61.6966 -54.199
LeftShoulder1  -0.391044 6.45693 -5.2774
LeftArm  -22.4949 -15.3764 -40.0327
LeftForeArm  34.203 -72.0805 -33.015
LeftHand  -2.07027 -3.20143 27.8347
RightShoulder  0.797072 0.77295 11.5528
RightArm  -24.0723 -33.9421 59.2256
RightForeArm  -16.2962 25.0125 6.14402
RightHand  -2.72603 6.81844 -25.7935
LeftUpLeg  -20.6894 -2.63791 29.4538
LeftLeg  37.0767 12.4611 10.2751
LeftFoot  -4.12521 1.22155 -19.4402
LeftToes  -5.54824e-011 -8.71001e-011 8.3852e-012
313
root  -7.00345 35.5362 10.9251 -153.071 68.6132 -155.931
RightUpLeg  -33.375 -1.3263 -2.7944
RightLeg  39.0066 7.24009 5.96774
RightFoot  -10.8463 -0.172756 24.2404
RightToes  2.32829e-010 0 -3.6325e-017
Spine  21.227 -0.728425 -20.9119
Spine1  9.71158 -15.2635 36.9286
HEad  -46.9974 62.9867 -57.3312
LeftShoulder1  -0.426457 6.3491 -7.4106
LeftArm  -29.6211 -14.495 -33.4937
LeftForeArm  35.0709 -72.9098 -35.8405
LeftHand  -2.14935 -3.12108 28.9617
RightShoulder  0.889077 0.898724 13.3153
RightArm  -25.7298 -39.4918 55.7883
RightForeArm  -20.8972 24.3027 6.18489
RightHand  -2.42792 6.21194 -24.2496
LeftUpLeg  -20.9125 -5.10644 32.2192
LeftLeg  43.6581 10.1319 10.575
LeftFoot  -10.6389 0.263494 -29.6269
LeftToes  -5.54824e-011 -8.71001e-011 8.3852e-012
314
root  -7.32127 34.6625 10.4379 -155.432 67.042 -157.089
RightUpLeg  -34.5315 -2.00382 -4.53467
RightLeg  44.3581 5.88297 5.79915
RightFoot  -14.7613 0.727057 27.4458
RightToes  2.32829e-010 0 -3.6325e-017
Spine  20.6056 -0.566942 -22.6267
Spine1  11.6851 -16.4806 38.7318
HEad  -46.5062 63.6864 -56.7331
LeftShoulder1  -0.457129 5.98631 -11.0446
LeftArm  -32.1332 -13.0513 -32.4122
LeftForeArm  49.063 -77.3947 -56.23
LeftHand  -2.656 -3.43467 34.2111
RightShoulder  0.884798 0.563594 15.0131
RightArm  -30.6864 -43.6785 55.5397
RightForeArm  -25.397 23.0579 6.26205
RightHand  -2.221 5.55358 -23.5443
LeftUpLeg  -22.8075 -6.25128 32.2242
LeftLeg  47.8353 7.35926 9.05237
LeftFoot  -16.3754 -1.34131 -32.6044
LeftToes  -5.54824e-011 -8.71001e-011 8.3852e-012
315
root  -7.5201 34.2286 10.0833 -161.835 61.5126 -163.311
RightUpLeg  -33.7664 -3.88805 -7.32049
RightLeg  47.1672 2.35654 2.39934
RightFoot  -17.8666 1.53704 28.5926
RightToes  2.32829e-010 0 -3.6325e-017
Spine  19.7049 -0.549438 -24.4185
Spine1  12.5087 -17.5345 40.6014
HEad  -43.5257 63.3856 -53.1903
LeftShoulder1  -0.509137 5.91703 -14.0137
LeftArm  -28.5036 -12.482 -38.7227
LeftForeArm  83.1269 -79.4389 -93.7155
LeftHand  -3.14405 -3.98472 37.9328
RightShoulder  0.957191 0.685276 16.2101
RightArm  -37.3428 -47.0647 59.7777
RightForeArm  -31.601 21.0214 6.8396
RightHand  -2.04729 4.68832 -23.5434
LeftUpLeg  -26.7193 -6.98205 31.1979
LeftLeg  49.2036 4.25438 5.72471
LeftFoot  -19.9982 -2.16198 -29.5081
LeftToes  -5.54824e-011 -8.71001e-011 8.3852e-012
316
root  -7.65454 34.2083 9.85158 -167.524 51.267 -169.331
RightUpLeg  -30.2925 -7.64929 -10.0915
RightLeg  47.8351 -1.72909 -2.36622
RightFoot  -19.54 2.05179 29.8412
RightToes  2.32829e-010 0 -3.6325e-017
Spine  19.3312 -0.498358 -23.7485
Spine1  12.2558 -17.2127 40.3461
HEad  -41.4327 60.1479 -48.7905
LeftShoulder1  -0.245662 4.57002 -17.1948
LeftArm  -19.7869 -12.6318 -48.2841
LeftForeArm  105.517 -78.5285 -114.537
LeftHand  -3.25269 -4.26587 38.045
RightShoulder  1.14044 1.25988 17.3996
RightArm  -38.2893 -47.792 65.6882
RightForeArm  -38.1489 19.5647 7.72325
RightHand  -1.93852 4.29791 -23.2041
LeftUpLeg  -32.1982 -9.33168 30.1176
LeftLeg  48.1925 0.463911 1.01716
LeftFoot  -20.4605 -2.00864 -26.2181
LeftToes  -5.54824e-011 -8.71001e-011 8.3852e-012
317
root  -7.65846 34.6043 9.62378 -171.335 37.2082 -173.803
RightUpLeg  -23.5397 -14.4322 -12.9355
RightLeg  46.1195 -6.18384 -7.11317
RightFoot  -19.4088 2.23382 32.7977
RightToes  2.32829e-010 0 -3.6325e-017
Spine  18.5727 0.0632051 -20.086
Spine1  12.1199 -14.8363 37.0797
HEad  -39.6796 52.4532 -43.4053
LeftShoulder1  0.684604 1.06775 -21.4349
LeftArm  -7.54024 -12.192 -56.0593
LeftForeArm  107.008 -78.7008 -113.403
LeftHand  -3.30869 -4.75888 36.918
RightShoulder  1.30791 1.59276 19.2818
RightArm  -32.2341 -44.6099 66.6434
RightForeArm  -40.2345 19.9358 8.08548
RightHand  -2.00698 4.69586 -23.0838
LeftUpLeg  -37.73 -14.2902 28.5871
LeftLeg  44.3581 -4.65141 -4.38678
LeftFoot  -17.7481 -1.3246 -25.1951
LeftToes  -5.54824e-011 -8.71001e-011 8.3852e-012
318
root  -7.4941 35.3878 9.27446 -173.583 21.6333 -177.436
RightUpLeg  -14.0575 -23.2349 -16.5108
RightLeg  41.4411 -11.5026 -10.9269
RightFoot  -17.6072 1.82436 34.4138
RightToes  2.32829e-010 0 -3.6325e-017
Spine  16.3313 1.58923 -14.8092
Spine1  12.9893 -10.5843 31.6102
HEad  -35.1401 41.4329 -35.31
LeftShoulder1  1.68484 -2.11413 -23.9633
LeftArm  6.7901 -10.1298 -60.4993
LeftForeArm  93.4504 -79.4776 -99.4802
LeftHand  -3.24071 -5.05033 35.2337
RightShoulder  1.48514 1.84426 21.5054
RightArm  -29.6702 -40.1489 58.4539
RightForeArm  -33.4906 18.5275 8.27646
RightHand  -2.24593 5.42288 -24.0506
LeftUpLeg  -40.9641 -20.1788 25.723
LeftLeg  37.1015 -11.5696 -8.83659
LeftFoot  -12.7487 -0.236337 -25.1336
LeftToes  -5.54824e-011 -8.71001e-011 8.3852e-012
